<svg width="32" height="32" viewBox="0 0 32 32" fill="none" xmlns="http://www.w3.org/2000/svg">
<circle cx="16" cy="16" r="16" fill="#01FF66"/>
<path fill-rule="evenodd" clip-rule="evenodd" d="M15.2158 25.2729C15.1934 25.2952 15.1575 25.2952 15.0857 25.2952C15.0139 25.2952 14.9779 25.2952 14.9556 25.2729C14.9333 25.2506 14.9333 25.2146 14.9333 25.1428V23.6183C14.8751 23.6173 14.8171 23.6156 14.7593 23.613C11.8087 23.4864 9.334 21.3567 8.43675 18.4299C8.20288 17.6688 8.07617 16.8524 8.07617 15.9999C8.07617 15.1475 8.20288 14.331 8.43676 13.57C9.33403 10.6432 11.8088 8.51348 14.7594 8.38687C14.8172 8.38433 14.8752 8.38256 14.9333 8.38156V6.85709C14.9333 6.78526 14.9333 6.74934 14.9556 6.72703C14.9779 6.70471 15.0139 6.70471 15.0857 6.70471C15.1575 6.70471 15.1934 6.70471 15.2158 6.72703C15.2381 6.74934 15.2381 6.78526 15.2381 6.85709V8.3809H16.9143V6.85709C16.9143 6.78526 16.9143 6.74934 16.9366 6.72703C16.9589 6.70471 16.9948 6.70471 17.0666 6.70471C17.1385 6.70471 17.1744 6.70471 17.1967 6.72703C17.219 6.74934 17.219 6.78526 17.219 6.85709V8.3809H20.2666C20.554 8.3809 20.6976 8.3809 20.7869 8.47017C20.8762 8.55943 20.8762 8.70309 20.8762 8.99043V12.8864C20.4371 11.694 19.2701 9.28488 17.219 8.87904L17.219 23.1209C19.2701 22.715 20.4371 20.3059 20.8762 19.1135V23.0095C20.8762 23.2968 20.8762 23.4405 20.7869 23.5297C20.6976 23.619 20.554 23.619 20.2666 23.619L17.219 23.619V25.1428C17.219 25.2146 17.219 25.2506 17.1967 25.2729C17.1744 25.2952 17.1385 25.2952 17.0666 25.2952C16.9948 25.2952 16.9589 25.2952 16.9366 25.2729C16.9143 25.2506 16.9143 25.2146 16.9143 25.1428V23.619L15.2381 23.619V25.1428C15.2381 25.2146 15.2381 25.2506 15.2158 25.2729ZM14.9333 22.4612L14.9333 9.53874C13.6906 10.701 12.7173 13.1531 12.7173 15.9999C12.7173 18.8468 13.6906 21.2989 14.9333 22.4612ZM15.2381 22.7161C15.6414 23.0148 16.0659 23.1786 16.4895 23.1794H16.6265C16.64 23.1794 16.6535 23.1793 16.667 23.1791C16.7507 23.1778 16.8331 23.1731 16.9143 23.1654L16.9143 8.83449C16.8332 8.82675 16.7508 8.82213 16.6671 8.82078C16.6536 8.82059 16.64 8.82049 16.6264 8.82047H16.4896C16.066 8.82131 15.6415 8.98505 15.2381 9.28376L15.2381 22.7161Z" fill="#101010"/>
</svg>
