<svg width="32" height="32" viewBox="0 0 32 32" fill="none" xmlns="http://www.w3.org/2000/svg">
<g clip-path="url(#clip0_180_93)">
<rect width="32" height="32" fill="#6366F1"/>
<g filter="url(#filter0_d_180_93)">
<path d="M14.505 7.13439C14.505 7.13436 14.5058 7.13593 14.5073 7.1392C14.5057 7.13606 14.5049 7.13442 14.505 7.13439ZM13.9518 12.4904C13.9497 12.4933 13.9486 12.4946 13.9486 12.4946C13.9486 12.4946 13.9496 12.4931 13.9518 12.4904ZM17.9791 12.913C17.9791 12.913 17.9783 12.9114 17.9768 12.9081C17.9784 12.9113 17.9792 12.9129 17.9791 12.913ZM18.5323 7.55698C18.5344 7.55409 18.5355 7.55272 18.5355 7.55275C18.5355 7.55279 18.5345 7.55423 18.5323 7.55698Z" fill="white" stroke="white" stroke-width="8"/>
<path fill-rule="evenodd" clip-rule="evenodd" d="M16.2821 15.5559C16.1066 15.6747 15.8672 15.481 15.695 15.3043C15.2994 14.8978 14.5969 11.8932 14.8549 9.67234C15.2066 6.64621 16.3638 5.00573 17.0518 5.10137C17.7588 6.22717 17.2989 9.00146 16.8185 11.899C16.6136 13.1351 16.4055 14.3933 16.2821 15.5559Z" fill="url(#paint0_linear_180_93)"/>
<path d="M18.7163 7.2387C18.7164 7.23868 18.7165 7.24044 18.7167 7.24403C18.7164 7.24052 18.7163 7.23872 18.7163 7.2387ZM16.2339 12.0168C16.2309 12.0187 16.2294 12.0196 16.2294 12.0195C16.2293 12.0195 16.2309 12.0185 16.2339 12.0168ZM19.8243 13.8896C19.8242 13.8896 19.8241 13.8878 19.8239 13.8843C19.8242 13.8878 19.8243 13.8896 19.8243 13.8896ZM22.3066 9.11149C22.3097 9.10958 22.3112 9.10871 22.3112 9.10875C22.3112 9.10879 22.3097 9.10975 22.3066 9.11149Z" fill="white" stroke="white" stroke-width="8"/>
<path fill-rule="evenodd" clip-rule="evenodd" d="M20.324 18.1189C20.5096 16.6801 20.324 15.6257 19.3845 14.1638C15.328 10.8931 8.50537 16.9531 8.50537 20.1428C8.6399 23.7741 18.6441 25.5813 20.324 18.1189ZM13.6418 19.0668C14.1793 19.0668 14.6151 18.8473 14.6151 18.3098C14.6151 17.7722 14.1793 17.3365 13.6418 17.3365C13.1043 17.3365 12.6685 17.7722 12.6685 18.3098C12.6685 18.8473 13.1043 19.0668 13.6418 19.0668Z" fill="white"/>
<path d="M24.1679 20.3709C22.2342 20.2317 20.8216 21.2997 19.4174 22.3614C17.8468 23.549 16.2864 24.7287 14.0188 24.202C15.3584 25.7965 18.5604 26.0758 20.8384 24.8866C22.2795 24.1362 22.8988 22.8589 23.4735 21.6733C23.6964 21.2133 23.9128 20.7671 24.1679 20.3709Z" fill="white"/>
<path d="M13.1642 24.4695C14.0057 24.4179 14.5232 25.0431 15.0376 25.6645C15.613 26.3597 16.1846 27.0502 17.2016 26.7838C16.4941 27.6684 15.0966 27.7816 14.2177 27.0755C13.6616 26.6299 13.502 25.8974 13.3539 25.2174C13.2965 24.9536 13.2407 24.6976 13.1642 24.4695Z" fill="white"/>
<path fill-rule="evenodd" clip-rule="evenodd" d="M17.6456 15.5656C17.4405 15.6192 17.2793 15.3568 17.1759 15.1327C16.9384 14.6177 17.2773 11.5507 18.2607 9.54278C19.6007 6.80681 21.2386 5.64578 21.8553 5.96521C22.1467 7.26229 20.7886 9.72471 19.37 12.2965C18.7649 13.3937 18.1493 14.5106 17.6456 15.5656Z" fill="url(#paint1_linear_180_93)"/>
<path fill-rule="evenodd" clip-rule="evenodd" d="M8.88332 10.3075C8.59722 9.8741 9.16473 9.38865 9.54857 9.73845L9.82961 9.99457C9.72146 10.1371 9.37765 10.3804 8.88332 10.3075V10.3075ZM9.37765 11.0563C9.62743 11.0549 10.2081 10.9688 10.5326 10.6352L12.211 12.1648C11.5599 12.8407 10.9381 12.902 10.5556 12.8407L9.37765 11.0563ZM11.2339 13.8681L12.1027 15.1842C12.2684 15.4352 12.6165 15.4842 12.845 15.2887L13.8559 14.4241C14.0844 14.2286 14.0899 13.8771 13.8676 13.6746L13.0199 12.902C12.8927 13.1614 12.3573 13.7178 11.2339 13.8681Z" fill="white"/>
</g>
</g>
<defs>
<filter id="filter0_d_180_93" x="-15.4946" y="-3.75269" width="63.6626" height="71.2886" filterUnits="userSpaceOnUse" color-interpolation-filters="sRGB">
<feFlood flood-opacity="0" result="BackgroundImageFix"/>
<feColorMatrix in="SourceAlpha" type="matrix" values="0 0 0 0 0 0 0 0 0 0 0 0 0 0 0 0 0 0 127 0" result="hardAlpha"/>
<feOffset dy="16"/>
<feGaussianBlur stdDeviation="12"/>
<feComposite in2="hardAlpha" operator="out"/>
<feColorMatrix type="matrix" values="0 0 0 0 0 0 0 0 0 0 0 0 0 0 0 0 0 0 0.25 0"/>
<feBlend mode="normal" in2="BackgroundImageFix" result="effect1_dropShadow_180_93"/>
<feBlend mode="normal" in="SourceGraphic" in2="effect1_dropShadow_180_93" result="shape"/>
</filter>
<linearGradient id="paint0_linear_180_93" x1="18.035" y1="21.3372" x2="14.5719" y2="1.99324" gradientUnits="userSpaceOnUse">
<stop stop-color="#CDCED8"/>
<stop offset="1" stop-color="#8697FF" stop-opacity="0"/>
</linearGradient>
<linearGradient id="paint1_linear_180_93" x1="17.3717" y1="21.6006" x2="20.553" y2="2.20834" gradientUnits="userSpaceOnUse">
<stop stop-color="#CDCED8"/>
<stop offset="1" stop-color="#8697FF" stop-opacity="0"/>
</linearGradient>
<clipPath id="clip0_180_93">
<rect width="32" height="32" fill="white"/>
</clipPath>
</defs>
</svg>
