<svg width="371" height="496" viewBox="0 0 371 496" fill="none" xmlns="http://www.w3.org/2000/svg">
<g filter="url(#filter0_d_145_459)">
<path d="M199.163 12.6398C203.978 13.1407 208.678 15.9561 213.039 21.3545C217.414 26.7697 221.238 34.5486 224.203 44.2999C230.127 63.7856 232.382 90.3675 229.378 119.367C226.375 148.366 218.72 173.917 208.929 191.768C204.029 200.701 198.692 207.527 193.3 211.927C187.925 216.312 182.749 218.1 177.934 217.6C173.118 217.099 168.419 214.283 164.057 208.885C159.682 203.47 155.858 195.691 152.894 185.939C146.97 166.454 144.715 139.872 147.718 110.873C150.722 81.8734 158.377 56.3223 168.168 38.4713C173.068 29.538 178.405 22.712 183.796 18.3128C189.171 13.9271 194.347 12.1389 199.163 12.6398Z" fill="#6366F1" stroke="#6366F1" stroke-width="8"/>
<path fill-rule="evenodd" clip-rule="evenodd" d="M189.281 217.182C186.05 219.374 181.642 215.802 178.473 212.54C171.19 205.042 158.258 149.613 163.008 108.642C169.481 52.8162 190.786 22.5526 203.45 24.317C216.466 45.0858 207.999 96.266 199.156 149.72C195.383 172.524 191.552 195.736 189.281 217.182Z" fill="url(#paint0_linear_145_459)"/>
<path d="M291.738 33.6936C296.035 35.9334 299.373 40.2834 301.45 46.9099C303.534 53.5571 304.238 62.1998 303.42 72.3602C301.785 92.6635 294.136 118.216 280.71 144.08C267.284 169.944 250.797 190.889 235.146 203.886C227.314 210.39 219.848 214.773 213.221 216.879C206.614 218.979 201.143 218.736 196.846 216.497C192.55 214.257 189.211 209.907 187.134 203.28C185.051 196.633 184.346 187.99 185.164 177.83C186.799 157.527 194.448 131.974 207.874 106.11C221.3 80.2459 237.787 59.3013 253.438 46.3046C261.27 39.8006 268.736 35.4173 275.364 33.3111C281.97 31.2114 287.441 31.4537 291.738 33.6936Z" fill="#6366F1" stroke="#6366F1" stroke-width="8"/>
<path fill-rule="evenodd" clip-rule="evenodd" d="M263.68 264.466C267.096 237.924 263.68 218.472 246.384 191.502C171.709 131.165 46.1113 242.959 46.1113 301.803C48.5879 368.794 232.754 402.133 263.68 264.466ZM140.677 281.956C150.572 281.956 158.594 277.907 158.594 267.991C158.594 258.074 150.572 250.035 140.677 250.035C130.781 250.035 122.759 258.074 122.759 267.991C122.759 277.907 130.781 281.956 140.677 281.956Z" fill="#6366F1"/>
<path fill-rule="evenodd" clip-rule="evenodd" d="M214.385 217.361C210.61 218.349 207.641 213.508 205.738 209.375C201.365 199.873 207.605 143.294 225.708 106.251C250.376 55.7779 280.527 34.3592 291.88 40.2521C297.246 64.1806 272.243 109.608 246.129 157.052C234.989 177.293 223.657 197.898 214.385 217.361Z" fill="url(#paint1_linear_145_459)"/>
<path fill-rule="evenodd" clip-rule="evenodd" d="M34.8711 92.7256C32.2797 88.7919 37.4217 84.3841 40.8982 87.5591L70.4989 114.593C68.5079 117.221 62.1789 121.71 53.0788 120.365L34.8711 92.7256ZM62.1789 134.179C66.7771 134.154 77.4668 132.565 83.4393 126.411L114.338 154.629C102.352 167.098 90.905 168.229 83.8643 167.098L62.1789 134.179ZM96.3499 186.052L115.595 215.266C116.919 217.276 119.701 217.667 121.527 216.102L149.1 192.466C150.927 190.9 150.971 188.085 149.195 186.464L129.229 168.229C126.886 173.014 117.031 183.279 96.3499 186.052Z" fill="#6366F1"/>
<path d="M127.002 373.407C121.26 373.096 114.907 371.607 109.67 370.18C104.902 368.88 99.8765 372.188 98.4269 377.023C92.1459 397.968 75.9507 433.445 100.537 444.914C121.851 454.857 151.574 456.371 168.183 454.124C173.941 453.344 174.008 447.72 169.808 443.833C154.041 429.238 143.897 399.192 134.975 378.421C133.639 375.309 130.395 373.59 127.002 373.407Z" fill="#6366F1"/>
<path d="M163.611 374.496C225.393 360.376 256.55 327.73 267.508 307.645C269.569 303.868 273.982 301.702 278.005 303.233C318.456 318.619 342.647 347.179 346.408 364.612C354.237 400.897 265.78 445.623 229.944 449.613C186.922 454.403 168.839 413.617 157.631 385.564C155.756 380.869 158.683 375.623 163.611 374.496Z" fill="#6366F1"/>
</g>
<defs>
<filter id="filter0_d_145_459" x="10.167" y="0.557129" width="360.729" height="494.475" filterUnits="userSpaceOnUse" color-interpolation-filters="sRGB">
<feFlood flood-opacity="0" result="BackgroundImageFix"/>
<feColorMatrix in="SourceAlpha" type="matrix" values="0 0 0 0 0 0 0 0 0 0 0 0 0 0 0 0 0 0 127 0" result="hardAlpha"/>
<feOffset dy="16"/>
<feGaussianBlur stdDeviation="12"/>
<feComposite in2="hardAlpha" operator="out"/>
<feColorMatrix type="matrix" values="0 0 0 0 0 0 0 0 0 0 0 0 0 0 0 0 0 0 0.25 0"/>
<feBlend mode="normal" in2="BackgroundImageFix" result="effect1_dropShadow_145_459"/>
<feBlend mode="normal" in="SourceGraphic" in2="effect1_dropShadow_145_459" result="shape"/>
</filter>
<linearGradient id="paint0_linear_145_459" x1="221.55" y1="323.836" x2="157.536" y2="-32.9748" gradientUnits="userSpaceOnUse">
<stop stop-color="white"/>
<stop offset="1" stop-color="#BAC3FF"/>
</linearGradient>
<linearGradient id="paint1_linear_145_459" x1="209.342" y1="328.695" x2="268.149" y2="-29.0151" gradientUnits="userSpaceOnUse">
<stop stop-color="white"/>
<stop offset="1" stop-color="#BAC3FF"/>
</linearGradient>
</defs>
</svg>
