<svg width="371" height="496" viewBox="0 0 371 496" fill="none" xmlns="http://www.w3.org/2000/svg">
<g filter="url(#filter0_d_144_425)">
<path d="M199.17 12.6399C203.985 13.1408 208.684 15.9562 213.046 21.3546C217.421 26.7698 221.245 34.5487 224.21 44.3C230.134 63.7857 232.389 90.3675 229.385 119.367C226.381 148.366 218.726 173.917 208.935 191.768C204.036 200.701 198.699 207.527 193.307 211.927C187.932 216.312 182.756 218.1 177.94 217.6C173.125 217.099 168.426 214.283 164.064 208.885C159.689 203.47 155.865 195.691 152.9 185.939C146.977 166.454 144.721 139.872 147.725 110.873C150.729 81.8734 158.384 56.3224 168.175 38.4713C173.075 29.5381 178.412 22.7121 183.803 18.3128C189.178 13.9272 194.354 12.139 199.17 12.6399Z" fill="white" stroke="white" stroke-width="8"/>
<path fill-rule="evenodd" clip-rule="evenodd" d="M189.281 217.182C186.05 219.374 181.642 215.802 178.473 212.54C171.19 205.042 158.258 149.613 163.008 108.642C169.481 52.8162 190.786 22.5526 203.45 24.317C216.466 45.0858 207.999 96.266 199.156 149.72C195.383 172.524 191.552 195.736 189.281 217.182Z" fill="url(#paint0_linear_144_425)"/>
<path d="M291.739 33.6934C296.035 35.9332 299.374 40.2832 301.451 46.9097C303.534 53.5569 304.239 62.1996 303.421 72.36C301.786 92.6633 294.137 118.216 280.711 144.08C267.285 169.944 250.798 190.889 235.147 203.885C227.315 210.389 219.849 214.773 213.221 216.879C206.615 218.979 201.144 218.736 196.847 216.496C192.551 214.257 189.212 209.907 187.135 203.28C185.052 196.633 184.347 187.99 185.165 177.83C186.8 157.526 194.449 131.974 207.875 106.11C221.301 80.2457 237.788 59.3011 253.439 46.3044C261.271 39.8004 268.737 35.4171 275.365 33.3109C281.971 31.2112 287.442 31.4535 291.739 33.6934Z" fill="white" stroke="white" stroke-width="8"/>
<path fill-rule="evenodd" clip-rule="evenodd" d="M263.687 264.466C267.104 237.924 263.687 218.472 246.392 191.502C171.717 131.165 46.1191 242.959 46.1191 301.802C48.5958 368.793 232.761 402.133 263.687 264.466ZM140.679 281.956C150.575 281.956 158.597 277.907 158.597 267.991C158.597 258.074 150.575 250.035 140.679 250.035C130.784 250.035 122.762 258.074 122.762 267.991C122.762 277.907 130.784 281.956 140.679 281.956Z" fill="white"/>
<path fill-rule="evenodd" clip-rule="evenodd" d="M214.383 217.361C210.608 218.349 207.64 213.508 205.736 209.375C201.363 199.873 207.603 143.294 225.706 106.251C250.374 55.7779 280.525 34.3592 291.878 40.2521C297.244 64.1806 272.241 109.608 246.127 157.052C234.987 177.293 223.656 197.898 214.383 217.361Z" fill="url(#paint1_linear_144_425)"/>
<path fill-rule="evenodd" clip-rule="evenodd" d="M34.8711 92.7256C32.2797 88.7919 37.4217 84.3841 40.8982 87.5591L70.4989 114.593C68.5079 117.221 62.1789 121.71 53.0788 120.365L34.8711 92.7256ZM62.1789 134.179C66.7771 134.154 77.4668 132.565 83.4393 126.411L114.338 154.629C102.352 167.098 90.905 168.229 83.8643 167.098L62.1789 134.179ZM96.3499 186.052L115.595 215.266C116.919 217.276 119.701 217.667 121.527 216.102L149.1 192.466C150.927 190.9 150.971 188.085 149.195 186.464L129.229 168.229C126.886 173.014 117.031 183.279 96.3499 186.052Z" fill="white"/>
<path d="M127.003 373.407C121.261 373.096 114.908 371.607 109.671 370.18C104.903 368.88 99.8775 372.188 98.4278 377.023C92.1469 397.968 75.9517 433.445 100.538 444.914C121.852 454.857 151.576 456.371 168.184 454.124C173.942 453.344 174.009 447.721 169.81 443.834C154.042 429.238 143.898 399.192 134.976 378.421C133.64 375.309 130.396 373.59 127.003 373.407Z" fill="white"/>
<path d="M163.614 374.496C225.396 360.376 256.553 327.73 267.511 307.645C269.572 303.868 273.985 301.702 278.008 303.233C318.458 318.619 342.65 347.179 346.411 364.612C354.24 400.897 265.782 445.622 229.947 449.613C186.924 454.403 168.842 413.617 157.634 385.564C155.759 380.869 158.686 375.623 163.614 374.496Z" fill="white"/>
</g>
<defs>
<filter id="filter0_d_144_425" x="10.167" y="0.557129" width="360.731" height="494.475" filterUnits="userSpaceOnUse" color-interpolation-filters="sRGB">
<feFlood flood-opacity="0" result="BackgroundImageFix"/>
<feColorMatrix in="SourceAlpha" type="matrix" values="0 0 0 0 0 0 0 0 0 0 0 0 0 0 0 0 0 0 127 0" result="hardAlpha"/>
<feOffset dy="16"/>
<feGaussianBlur stdDeviation="12"/>
<feComposite in2="hardAlpha" operator="out"/>
<feColorMatrix type="matrix" values="0 0 0 0 0 0 0 0 0 0 0 0 0 0 0 0 0 0 0.25 0"/>
<feBlend mode="normal" in2="BackgroundImageFix" result="effect1_dropShadow_144_425"/>
<feBlend mode="normal" in="SourceGraphic" in2="effect1_dropShadow_144_425" result="shape"/>
</filter>
<linearGradient id="paint0_linear_144_425" x1="221.55" y1="323.836" x2="157.536" y2="-32.9748" gradientUnits="userSpaceOnUse">
<stop stop-color="#CDCED8"/>
<stop offset="1" stop-color="#8697FF" stop-opacity="0"/>
</linearGradient>
<linearGradient id="paint1_linear_144_425" x1="209.34" y1="328.695" x2="268.147" y2="-29.0151" gradientUnits="userSpaceOnUse">
<stop stop-color="#CDCED8"/>
<stop offset="1" stop-color="#8697FF" stop-opacity="0"/>
</linearGradient>
</defs>
</svg>
