<svg width="32" height="32" viewBox="0 0 32 32" fill="none" xmlns="http://www.w3.org/2000/svg">
<rect width="32" height="32" fill="#6366F1"/>
<path d="M18.6563 9.76109C19.0127 6.32768 18.1276 3.4225 16.6794 3.27218C15.2312 3.12186 13.7683 5.78333 13.4119 9.21674C13.0555 12.6502 13.9406 15.5554 15.3888 15.7057C16.837 15.856 18.2999 13.1945 18.6563 9.76109Z" fill="white"/>
<path d="M21.6349 11.2881C23.2279 8.22576 23.4721 5.19858 22.1805 4.52666C20.8888 3.85474 18.5503 5.79253 16.9573 8.85483C15.3643 11.9172 15.1201 14.9444 16.4117 15.6163C17.7034 16.2882 20.0419 14.3504 21.6349 11.2881Z" fill="white"/>
<path fill-rule="evenodd" clip-rule="evenodd" d="M16.0864 15.5815C15.8963 15.7102 15.6369 15.5004 15.4504 15.3089C15.0218 14.8686 14.2608 11.6136 14.5403 9.20769C14.9212 5.92938 16.175 4.15221 16.9202 4.25582C17.6862 5.47543 17.1879 8.48091 16.6675 11.6199C16.4455 12.959 16.2201 14.3221 16.0864 15.5815Z" fill="url(#paint0_linear_180_108)"/>
<path fill-rule="evenodd" clip-rule="evenodd" d="M20.4303 18.2101C20.6302 16.6602 20.4303 15.5243 19.4182 13.9494C15.0482 10.4259 7.69824 16.9543 7.69824 20.3904C7.84317 24.3024 18.6205 26.2493 20.4303 18.2101ZM13.2323 19.2314C13.8114 19.2314 14.2808 18.995 14.2808 18.4159C14.2808 17.8369 13.8114 17.3674 13.2323 17.3674C12.6532 17.3674 12.1838 17.8369 12.1838 18.4159C12.1838 18.995 12.6532 19.2314 13.2323 19.2314Z" fill="white"/>
<path d="M24.5717 20.636C22.4885 20.4861 20.9668 21.6366 19.4541 22.7804C17.7621 24.0598 16.0811 25.3307 13.6382 24.7633C15.0813 26.481 18.5308 26.7819 20.9848 25.5008C22.5374 24.6924 23.2045 23.3164 23.8236 22.0391C24.0638 21.5436 24.2969 21.0629 24.5717 20.636Z" fill="white"/>
<path d="M12.7173 25.0518C13.6239 24.9962 14.1813 25.6697 14.7355 26.3392C15.3553 27.088 15.9711 27.832 17.0668 27.5449C16.3046 28.4979 14.799 28.6198 13.8523 27.8592C13.2531 27.3792 13.0812 26.59 12.9217 25.8575C12.8598 25.5733 12.7997 25.2975 12.7173 25.0518Z" fill="white"/>
<path fill-rule="evenodd" clip-rule="evenodd" d="M17.5637 15.592C17.3415 15.65 17.1669 15.3657 17.0548 15.123C16.7975 14.565 17.1647 11.2425 18.23 9.06723C19.6817 6.10327 21.456 4.84549 22.1242 5.19154C22.4399 6.5967 20.9685 9.26433 19.4318 12.0504C18.7762 13.2391 18.1094 14.4491 17.5637 15.592Z" fill="url(#paint1_linear_180_108)"/>
<path fill-rule="evenodd" clip-rule="evenodd" d="M7.58391 9.49153C7.22155 8.94263 7.94032 8.3278 8.42645 8.77082L8.78239 9.09521C8.64541 9.27567 8.20998 9.58385 7.58391 9.49153V9.49153ZM8.20998 10.4399C8.52634 10.4382 9.26177 10.3291 9.67268 9.90656L11.7984 11.8438C10.9739 12.6999 10.1863 12.7775 9.70192 12.6999L8.20998 10.4399ZM10.5609 14.0011L11.1973 14.965C11.6535 15.6562 12.6123 15.7911 13.2416 15.2528V15.2528C13.8709 14.7145 13.8861 13.7464 13.274 13.1886L12.823 12.7775C12.6618 13.1061 11.9837 13.8107 10.5609 14.0011Z" fill="white"/>
<defs>
<linearGradient id="paint0_linear_180_108" x1="17.9854" y1="21.8446" x2="14.2337" y2="0.888678" gradientUnits="userSpaceOnUse">
<stop stop-color="#CDCED8"/>
<stop offset="1" stop-color="#8697FF" stop-opacity="0"/>
</linearGradient>
<linearGradient id="paint1_linear_180_108" x1="17.2669" y1="22.1299" x2="20.7134" y2="1.1216" gradientUnits="userSpaceOnUse">
<stop stop-color="#CDCED8"/>
<stop offset="1" stop-color="#8697FF" stop-opacity="0"/>
</linearGradient>
</defs>
</svg>
