<svg width="135" height="135" viewBox="0 0 135 135" fill="none" xmlns="http://www.w3.org/2000/svg">
<rect x="1.99902" y="2" width="130.458" height="130.458" rx="65.2292" fill="white"/>
<rect x="1.99902" y="2" width="130.458" height="130.458" rx="65.2292" stroke="#111111" stroke-width="4"/>
<path fill-rule="evenodd" clip-rule="evenodd" d="M52.5176 35.8374H51.0526L50.1029 36.9529L26.1247 65.1169L24.3745 67.1727L26.1247 69.2285L50.1029 97.3927L51.0526 98.5081H52.5176H95.6867H98.8579V95.3369V77.4322H92.5155V92.1657H59.4526L79.2744 69.2472L81.0686 67.1727L79.2744 65.0982L59.4526 42.1798H92.5155V56.9132H98.8579V39.0086V35.8374H95.6867H52.5176ZM52.5363 43.8786L32.7042 67.1727L52.5363 90.467L72.6831 67.1727L52.5363 43.8786Z" fill="#111111"/>
</svg>
